<svg height="39" viewBox="0 0 160 39" width="160" xmlns="http://www.w3.org/2000/svg"><path d="m21.7131491 9.57345874 6.2010132 3.60864596-6.2002947 3.6079219c-.5079304.2956522-.6820301.9504313-.388671 1.4625732.2933592.512142.9430598.6876025 1.4512297.3919503l6.2000552-3.6076805v7.2153611c0 .5913043.475601 1.0706229 1.0625588 1.0706229.5867182 0 1.0623192-.4793186 1.0623192-1.0706229v-9.6884614l-8.3256517-4.84507542c-.5081698-.29565218-1.1578705-.12019166-1.4514691.39195031-.2933591.51238332-.1192594 1.16716238.3889104 1.46281455zm-4.9243621 7.21294766-6.2000553-3.6074392 6.2000553-3.60743925c.5081698-.29565217.6822695-.95043123.3889103-1.4625732v-.00024135c-.2935986-.51214197-.9432992-.68760249-1.4514691-.39195031l-8.32517266 4.84411001-.00071843 9.6891855c0 .5913043.47584047 1.0706229 1.06255872 1.0706229h.00023947c.58671825 0 1.06231925-.4793186 1.06231925-1.0706229l.00023947-7.2165679 6.20053418 3.6074392c.5081699.2956522 1.1578705.1201917 1.4514691-.391709v-.0002413c.2933592-.512142.1192595-1.166921-.3889103-1.4625732zm3.5258174 13.370236 6.2002947-3.6076806c.5081699-.2956521 1.1578705-.1199503 1.4512297.3921917v.0002414c.2933591.5119006.1192594 1.1666796-.3889104 1.4623318l-8.3251727 4.84411-8.3261306-4.8438686c-.5081699-.2956522-.682509-.9506726-.3889104-1.4628146.2933591-.512142.9430598-.6876025 1.4512296-.3919503l6.2014921 3.6079219.0002395-7.2153611c0-.5913044.475601-1.0706229 1.0623193-1.0706229.5867182 0 1.0625587.4793185 1.0625587 1.0706229zm84.4579126-2.4856467c-3.15655 0-5.6397029-2.0651836-5.7138452-4.7239991h2.3042822c.117208 1.3344671 1.393776 2.6739936 3.409563 2.6739936 2.150369 0 3.087547-1.2036464 3.2488-2.3395938.08809-1.3865062-.782531-2.4142796-2.644895-2.8440845 0 0-.93938-.2503179-2.088707-.599414-2.820586-.8559959-4.0866314-2.0861437-4.0866314-4.232759 0-2.5877434 2.2920474-4.4189917 5.3313894-4.4189917 3.270088 0 5.257736 2.1526383 5.257736 4.2373365h-2.300122c0-.8299763-.870621-2.116259-3.005819-2.116259-1.673461 0-2.984531.9212858-2.984531 2.2506935 0 1.106073.811405 1.7683677 2.372796 2.221542 1.561636.4534152 2.1144.6232653 2.1144.6232653 3.135996.8220259 4.581647 2.595212 4.309547 5.002023-.2398 2.5518461-2.459662 4.2662472-5.523963 4.2662472zm49.439247-11.1861472c2.240541 0 3.754179 1.3370121 4.548449 2.6366894.841617 1.3771648.854336 2.9461699.764357 3.5573822h-8.497427c.161116 2.0003524 1.986149 2.9665984 3.239975 2.9665984 1.498091 0 2.273754-.6720282 2.797379-1.2679778.010835.0108013 1.715974.8608161 1.817495.9098915-.581099.8293514-2.031609 2.3835635-4.723697 2.3835635-2.386346 0-4.0896-1.9670093-4.56164-2.8219551-.472511-.854711-.712064-1.794893-.712064-2.7944822 0-3.2169066 2.517075-5.5697099 5.327173-5.5697099zm-62.2823981 0c2.2405411 0 3.7541783 1.3370121 4.5484491 2.6366894.8416162 1.3771648.8543359 2.9461699.7643562 3.5573822h-8.4974263c.1611154 2.0003524 1.9861482 2.9665984 3.239975 2.9665984 1.498091 0 2.2737535-.6720282 2.7973787-1.2679778.0108352.0108013 1.7159736.8608161 1.8174952.9098915-.5813347.8293514-2.0316092 2.3835635-4.7236975 2.3835635-2.3863458 0-4.0895999-1.9670093-4.5616399-2.8219551-.472511-.854711-.7120643-1.794893-.7120643-2.7944822 0-3.2169066 2.5170755-5.5697099 5.3271738-5.5697099zm41.6813971.3799304h2.224182v11.0165064h-2.224182v-1.3817663c-.769013 1.1493817-2.236658 1.7602213-3.472211 1.7602213-3.294963 0-5.573755-2.6359056-5.573755-5.8875689 0-3.2514174 2.278792-5.8873229 5.483837-5.8873229 1.501541 0 2.96542.713138 3.562129 1.6648083zm-62.2822098 0h2.2239935v11.0165064h-2.2239935v-1.2715988c-.7692644 1.1493817-2.1966879 1.6500538-3.4725182 1.6500538-3.2947965 0-5.5736365-2.6359056-5.5736365-5.8875689 0-3.2514174 2.27884-5.8873229 5.4837164-5.8873229 1.5015722 0 2.9654816.713138 3.5624383 1.6648083zm40.1865988-.0100978h2.224182v1.2499194c.596709-.9257776 2.060823-1.619752 3.562129-1.619752 3.205044 0 5.483837 2.5641887 5.483837 5.7273818s-2.278793 5.7273818-5.573756 5.7273818c-1.275803 0-2.703197-.48705-3.47221-1.6051597v6.0465h-2.224182zm-27.68664 10.8163146-3.2629867-4.0494265-1.818401 2.1883742v1.8578979h-2.2287491v-15.8929495h2.2287491v10.9899139l4.6828244-5.9687124h2.6159989l-4.0820331 5.1376689 4.6382776 5.7372335zm-25.5312224-15.8961039h2.2056118v15.8961039h-2.2729969v-10.8649264l-4.9714959 10.8649264h-2.119416l-4.9931639-10.8678386v10.8678386h-2.2515669v-15.8961039h2.1841818l6.1196617 12.9649109zm84.8953294 13.8773098c1.42185 0 2.51166-.692914 3.067487-1.6764351l1.972581.7413875c-.95146 1.7576927-2.821856 2.9538417-4.975019 2.9538417-3.11676 0-5.643226-2.504232-5.643226-5.5931907s2.526466-5.5929565 5.643226-5.5929565c2.419426 0 4.139821 1.20575 5.033757 3.0692883l-1.984959.7118819c-.55607-1.0280137-1.591754-1.7473891-3.048798-1.7473891-2.099037 0-3.452926 1.6455244-3.452926 3.5877443 0 1.94222 1.335199 3.5458277 3.387877 3.5458277zm-123.9360233 13.2050619c-10.61816335 0-19.25657175-8.7061721-19.25657175-19.4070914 0-10.70140191 8.6384084-19.4073327 19.25657175-19.4073327 10.6181634 0 19.2565718 8.70593079 19.2565718 19.4073327 0 10.7009193-8.6384084 19.4070914-19.2565718 19.4070914zm138.0425083-18.0265385h-6.159604c.157347-.9472264 1.281622-2.3290874 3.079802-2.3290874 1.688414 0 2.922455 1.2475493 3.079802 2.3290874zm-62.2823987 0h-6.1596036c.1573467-.9472264 1.2816215-2.3290874 3.0798018-2.3290874 1.6884144 0 2.9224551 1.2475493 3.0798018 2.3290874zm35.1637467 5.3631283c-1.920532 0-3.477389-1.7110394-3.477389-3.8216819s1.556857-3.8214359 3.477389-3.8214359c1.920531 0 3.477388 1.7107934 3.477388 3.8214359s-1.556857 3.8216819-3.477388 3.8216819zm-62.282517 0c-1.9205719 0-3.4774615-1.7110394-3.4774615-3.8216819s1.5568896-3.8214359 3.4774615-3.8214359c1.9205718 0 3.4774615 1.7107934 3.4774615 3.8214359s-1.5568897 3.8216819-3.4774615 3.8216819zm45.794321-3.981623c0-2.0532169 1.556857-3.7177028 3.477389-3.7177028s3.477389 1.6644859 3.477389 3.7177028c0 2.0532168-1.556857 3.7177028-3.477389 3.7177028s-3.477389-1.664486-3.477389-3.7177028z" fill="#fff" fill-rule="evenodd" transform=""/></svg>